{"title":"Contagion (2011) Engl xViD - IMAGINE.avi","uid":6832776,"size":745708446,"categoryP":"video","categoryS":"movies","magnet":"?xt=urn:btih:57649c82f49404d290c8a7025b4815185f1b47dc&amp;dn=Contagion+%282011%29+Engl+xViD+-+IMAGINE.avi&amp;tr=udp%3A%2F%2Ftracker.openbittorrent.com%3A80&amp;tr=udp%3A%2F%2Fopen.demonii.com%3A1337&amp;tr=udp%3A%2F%2Ftracker.coppersurfer.tk%3A6969&amp;tr=udp%3A%2F%2Fexodus.desync.com%3A6969","seeders":0,"leechers":0,"uploader":"nikonseed","files":1,"time":1321922292,"description":"Contagion (2011) Engl xViD - IMAGINE.avi\n\n- Video\nID                               : 0\nFormat                           : MPEG-4 Visual\nFormat profile                   : Advanced Simple@L5\nFormat settings, BVOP            : Yes\nFormat settings, QPel            : No\nFormat settings, GMC             : No warppoints\nFormat settings, Matrix          : Default (H.263)\nMuxing mode                      : Packed bitstream\nCodec ID                         : XVID\nCodec ID/Hint                    : XviD\nBit rate                         : 1 345 Kbps\nWidth                            : 720 pixels\nHeight                           : 314 pixels\nDisplay aspect ratio             : 2.25:1\nFrame rate                       : 29.970 fps\nColor space                      : YUV\nChroma subsampling               : 4:2:0\nBit depth                        : 8 bits\nScan type                        : Progressive\nCompression mode                 : Lossy\nBits/(Pixel*Frame)               : 0.198\nStream size                      : 1.19 GiB (87%)\nWriting library                  : XviD 1.1.0 (UTC 2005-11-22)\n\n- Audio\nID                               : 1\nFormat                           : AC-3\nFormat/Info                      : Audio Coding 3\nMode extension                   : CM (complete main)\nCodec ID                         : 2000\nBit rate mode                    : Constant\nBit rate                         : 192 Kbps\nChannel(s)                       : 2 channels\nChannel positions                : Front: L R\nSampling rate                    : 48.0 KHz\nBit depth                        : 16 bits\nCompression mode                 : Lossy\nStream size                      : 175 MiB (12%)\nAlignment                        : Aligned on interleaves\nInterleave, duration             : 33 ms (1.00 video frame)\nInterleave, preload duration     : 512 ms","torrent":{"xt":"urn:btih:57649c82f49404d290c8a7025b4815185f1b47dc","amp;dn":"Contagion+%282011%29+Engl+xViD+-+IMAGINE.avi","amp;tr":["udp%3A%2F%2Ftracker.openbittorrent.com%3A80","udp%3A%2F%2Fopen.demonii.com%3A1337","udp%3A%2F%2Ftracker.coppersurfer.tk%3A6969","udp%3A%2F%2Fexodus.desync.com%3A6969"],"infoHash":"57649c82f49404d290c8a7025b4815185f1b47dc","infoHashBuffer":{"type":"Buffer","data":[87,100,156,130,244,148,4,210,144,200,167,2,91,72,21,24,95,27,71,220]},"announce":[],"urlList":[]}}